# xmcd CD database file
# Copyright (C) 1993-1999 CDDB, Inc.
#
# Track frame offsets:
#	180
#	14027
#	24745
#	38629
#	49877
#	74035
#	92469
#	104104
#	118062
#	130015
#	152851
#	162529
#	174757
#	192825
#	204769
#	218181
#	240920
#	257024
#	276687
#	290720
#	301947
#
# Disc length: 4224
#
# Revision: 1
# Processed by: cddbd v1.5.2PL0 Copyright (c) Steve Scherf et al.
# Submitted via: CoolCD_Studio 1.3.1
#
DISCID=38107e15
DTITLE=Rod McKuen - Pastorale
DYEAR=1995
DGENRE=
TTITLE0=Fly Me To The North
TTITLE1=Three
TTITLE2=Pastorale: Part 1
TTITLE3=Love Let Me Not Hunger
TTITLE4=Make It With You
TTITLE5=The Green Hills Of England
TTITLE6=I Think Of You
TTITLE7=Something
TTITLE8=Fields Of Wonder
TTITLE9=Pastures Green/Pavements Gray
TTITLE10=Kill The Wind
TTITLE11=The Silver Apples Of The Moon
TTITLE12=He Ain't Heavy-He's My Brother
TTITLE13=Find Another Rainbow
TTITLE14=When Am I Ever Going Home
TTITLE15=The Wind Of Change
TTITLE16=Nothing's Going To Change My Mind
TTITLE17=Long Long Time
TTITLE18=Moving Day
TTITLE19=Yet Another Sunset
TTITLE20=The Single Man
EXTD=
EXTT0=
EXTT1=
EXTT2=
EXTT3=
EXTT4=
EXTT5=
EXTT6=
EXTT7=
EXTT8=
EXTT9=
EXTT10=
EXTT11=
EXTT12=
EXTT13=
EXTT14=
EXTT15=
EXTT16=
EXTT17=
EXTT18=
EXTT19=
EXTT20=
PLAYORDER=
